<?xml version="1.0" ?><!DOCTYPE svg  PUBLIC '-//W3C//DTD SVG 1.1//EN'  'http://www.w3.org/Graphics/SVG/1.1/DTD/svg11.dtd'><svg enable-background="new 0 0 144.083 144" height="144px" id="linkedin" version="1.1" viewBox="0 0 144.083 144" width="144.083px" xml:space="preserve" xmlns="http://www.w3.org/2000/svg" xmlns:xlink="http://www.w3.org/1999/xlink"><path d="M72.041,11.166c-33.543,0-60.833,27.29-60.833,60.834c0,33.545,27.29,60.834,60.833,60.834  c33.544,0,60.835-27.289,60.835-60.834C132.875,38.456,105.584,11.166,72.041,11.166z M72.041,126.834  c-30.235,0-54.833-24.598-54.833-54.834c0-30.235,24.598-54.834,54.833-54.834c30.235,0,54.835,24.599,54.835,54.834  C126.875,102.236,102.276,126.834,72.041,126.834z"/><rect height="36.734" width="14.078" x="41.143" y="59.11"/><ellipse cx="48.042" cy="46.75" rx="7.125" ry="6.5"/><path d="M90.608,58.28c-2.883,0-5.326,0.525-7.334,1.574c-2.006,1.05-3.988,2.796-5.949,5.24V59.11H64.215v36.734h14.078V78.203  c0-3.344,0.531-5.66,1.592-6.952c1.061-1.291,2.443-1.937,4.15-1.937c1.545,0,2.744,0.479,3.598,1.436  c0.854,0.957,1.279,2.588,1.279,4.895v20.199h14.148V72.497c0-4.843-1.102-8.423-3.305-10.741  C97.555,59.438,94.504,58.28,90.608,58.28z"/></svg>